<svg width="12" height="11" viewBox="0 0 12 11" fill="none" xmlns="http://www.w3.org/2000/svg">
<path d="M5.42937 0.75623C5.60898 0.203443 6.39102 0.203444 6.57063 0.75623L7.43689 3.42229C7.51721 3.6695 7.74759 3.83688 8.00752 3.83688H10.8108C11.392 3.83688 11.6337 4.58065 11.1635 4.92229L8.89557 6.57001C8.68528 6.72279 8.59728 6.99361 8.67761 7.24083L9.54386 9.90689C9.72347 10.4597 9.09079 10.9193 8.62056 10.5777L6.35267 8.92999C6.14238 8.77721 5.85762 8.77721 5.64733 8.92999L3.37944 10.5777C2.90921 10.9193 2.27653 10.4597 2.45614 9.90689L3.32239 7.24083C3.40272 6.99361 3.31472 6.72279 3.10443 6.57001L0.836542 4.92229C0.366314 4.58065 0.60798 3.83688 1.18921 3.83688H3.99248C4.25241 3.83688 4.48279 3.6695 4.56311 3.42229L5.42937 0.75623Z" fill="url(#paint0_linear_214_2796)"/>
<defs>
<linearGradient id="paint0_linear_214_2796" x1="6" y1="6" x2="6.5" y2="6" gradientUnits="userSpaceOnUse">
<stop stop-color="#F2C94C"/>
<stop offset="0.0885417" stop-color="#F3F3F3"/>
</linearGradient>
</defs>
</svg>
