<svg width="24" height="24" viewBox="0 0 24 24" fill="none" xmlns="http://www.w3.org/2000/svg">
<path fill-rule="evenodd" clip-rule="evenodd" d="M0 12C0 5.37258 5.37258 0 12 0C18.6274 0 24 5.37258 24 12C24 18.6274 18.6274 24 12 24C5.37258 24 0 18.6274 0 12ZM12.6273 15.9378C12.6273 15.9378 12.8584 15.9127 12.9767 15.7879C13.085 15.6736 13.0812 15.4579 13.0812 15.4579C13.0812 15.4579 13.0668 14.4507 13.5433 14.302C14.0128 14.1557 14.6157 15.276 15.2555 15.7068C15.7388 16.0325 16.1057 15.9612 16.1057 15.9612L17.8154 15.9378C17.8154 15.9378 18.7094 15.8838 18.2856 15.1937C18.2505 15.1371 18.0383 14.683 17.0147 13.7501C15.9423 12.7736 16.0863 12.9316 17.3772 11.2422C18.1635 10.2135 18.4778 9.58548 18.3795 9.31693C18.2862 9.06006 17.7077 9.12827 17.7077 9.12827L15.7833 9.13995C15.7833 9.13995 15.6405 9.1209 15.5347 9.18296C15.4314 9.2438 15.3644 9.38576 15.3644 9.38576C15.3644 9.38576 15.0602 10.1816 14.6539 10.8588C13.7968 12.2869 13.4544 12.3625 13.3141 12.274C12.9879 12.0669 13.0693 11.4432 13.0693 11.0001C13.0693 9.61559 13.2834 9.03855 12.653 8.88922C12.4439 8.83944 12.2899 8.80687 11.7546 8.80134C11.0679 8.79458 10.4869 8.8038 10.1576 8.96173C9.93846 9.06682 9.76943 9.30157 9.87273 9.31509C9.99982 9.33168 10.2878 9.39129 10.4406 9.59531C10.6378 9.85894 10.6309 10.4501 10.6309 10.4501C10.6309 10.4501 10.7442 12.0798 10.3661 12.282C10.1069 12.4209 9.75128 12.1376 8.98687 10.8416C8.59559 10.1779 8.30009 9.44414 8.30009 9.44414C8.30009 9.44414 8.24312 9.3071 8.14108 9.23336C8.01775 9.14425 7.84558 9.1166 7.84558 9.1166L6.0169 9.12827C6.0169 9.12827 5.74206 9.13565 5.64127 9.25302C5.55174 9.35688 5.63438 9.57257 5.63438 9.57257C5.63438 9.57257 7.06615 12.8609 8.68762 14.5183C10.1745 16.0374 11.8623 15.9378 11.8623 15.9378H12.6273Z" fill="white"/>
</svg>
