<svg width="24" height="24" viewBox="0 0 24 24" fill="none" xmlns="http://www.w3.org/2000/svg">
<path fill-rule="evenodd" clip-rule="evenodd" d="M12 24C5.37258 24 0 18.6274 0 12C0 5.37258 5.37258 0 12 0C18.6274 0 24 5.37258 24 12C24 18.6274 18.6274 24 12 24ZM12.3955 18.6763C16.3297 18.6747 19.5295 15.4741 19.5311 11.5408C19.5318 9.63417 18.7903 7.84141 17.4431 6.49271C16.0959 5.14393 14.3043 4.40082 12.3955 4.4C8.46241 4.4 5.26139 7.60085 5.25982 11.5351C5.25929 12.7927 5.58787 14.0203 6.21231 15.1024L5.2 18.8L8.98267 17.8077C10.0249 18.3762 11.1984 18.6758 12.3926 18.6763H12.3955Z" fill="white"/>
<path fill-rule="evenodd" clip-rule="evenodd" d="M9.1577 16.5162L6.91301 17.105L7.51215 14.9165L7.37114 14.6921C6.77745 13.7478 6.4639 12.6564 6.46436 11.5358C6.46565 8.2658 9.12623 5.60547 12.3976 5.60547C13.9818 5.60602 15.4709 6.2237 16.5906 7.34474C17.7103 8.46579 18.3267 9.95585 18.326 11.5406C18.3247 14.8108 15.6642 17.4714 12.3953 17.4714H12.3929C11.3287 17.471 10.2849 17.1851 9.37427 16.6447L9.1577 16.5162ZM15.9902 13.2378C15.9456 13.1634 15.8268 13.1188 15.6485 13.0295C15.4702 12.9403 14.5936 12.509 14.4301 12.4495C14.2667 12.39 14.1478 12.3603 14.029 12.5387C13.9102 12.7172 13.5685 13.1188 13.4644 13.2378C13.3604 13.3568 13.2564 13.3717 13.0782 13.2824C12.8999 13.1932 12.3254 13.0049 11.6444 12.3975C11.1144 11.9247 10.7565 11.3409 10.6525 11.1624C10.5485 10.9839 10.6414 10.8874 10.7307 10.7985C10.8109 10.7186 10.909 10.5902 10.9981 10.4861C11.0873 10.3821 11.117 10.3076 11.1764 10.1887C11.2359 10.0697 11.2062 9.9656 11.1616 9.87635C11.117 9.7871 10.7604 8.9095 10.6119 8.5525C10.4671 8.20484 10.3201 8.25194 10.2107 8.24644C10.1068 8.24123 9.98783 8.24013 9.86899 8.24013C9.75013 8.24013 9.55696 8.28475 9.39354 8.46325C9.23012 8.64175 8.76952 9.0731 8.76952 9.95064C8.76952 10.8282 9.40839 11.676 9.49754 11.795C9.58668 11.9141 10.7548 13.7149 12.5433 14.4872C12.9687 14.6709 13.3008 14.7806 13.5597 14.8628C13.9868 14.9985 14.3756 14.9793 14.6827 14.9334C15.0253 14.8822 15.7376 14.5021 15.8862 14.0857C16.0347 13.6691 16.0347 13.3122 15.9902 13.2378Z" fill="white"/>
</svg>
